<svg width="1060" height="300" viewBox="0 0 1060 300" fill="none" xmlns="http://www.w3.org/2000/svg">
<path d="M358.37 149.922H343.222V129.412H289.964V149.922H274.816V108.144C274.816 102.045 275.864 96.4324 277.962 91.3048C280.06 86.1773 282.974 81.7683 286.702 78.078C290.432 74.3878 294.84 71.5134 299.928 69.4544C305.017 67.3957 310.573 66.3663 316.594 66.3663H350.737C351.788 66.3663 352.778 66.5606 353.709 66.9489C354.642 67.3375 355.458 67.8814 356.157 68.5804C356.857 69.2797 357.401 70.0955 357.788 71.0277C358.177 71.9599 358.37 72.9506 358.37 73.9993V149.922ZM289.964 114.262H343.222V81.516H316.594C316.126 81.516 315.136 81.5936 313.62 81.7489C312.146 81.8654 310.418 82.1957 308.437 82.7394C306.494 83.2833 304.434 84.1184 302.26 85.2451C300.083 86.3716 298.083 87.9253 296.258 89.9064C294.432 91.8876 292.916 94.3735 291.714 97.3647C290.546 100.317 289.964 103.91 289.964 108.144V114.262ZM444.375 149.922H429.224V108.144C429.224 106.163 428.718 104.668 427.709 103.658C426.699 102.609 425.184 102.084 423.165 102.084H395.838V86.9348H423.165C424.601 86.9348 426.117 87.1095 427.709 87.4592C429.301 87.7699 430.876 88.2749 432.43 88.9742C434.021 89.6733 435.537 90.5862 436.974 91.7126C438.41 92.8002 439.673 94.1406 440.761 95.7332C441.85 97.2869 442.723 99.0933 443.384 101.152C444.043 103.211 444.375 105.542 444.375 108.144V149.922ZM389.718 149.922H374.57V60.3064H389.718V149.922ZM528.045 149.922H512.897V114.961C512.897 112.98 512.546 111.213 511.847 109.659C511.186 108.066 510.274 106.707 509.11 105.58C507.943 104.454 506.566 103.599 504.971 103.016C503.418 102.395 501.728 102.084 499.902 102.084H473.391V149.922H458.241V94.4513C458.241 93.4024 458.437 92.4313 458.823 91.5379C459.212 90.6055 459.757 89.8093 460.456 89.1489C461.155 88.4496 461.971 87.906 462.902 87.5174C463.835 87.1289 464.826 86.9348 465.873 86.9348H500.019C501.924 86.9348 503.924 87.1484 506.021 87.5756C508.157 88.0031 510.255 88.7021 512.313 89.6733C514.41 90.6055 516.391 91.8098 518.258 93.2859C520.16 94.7231 521.83 96.4907 523.267 98.5883C524.745 100.647 525.909 103.036 526.764 105.755C527.618 108.474 528.045 111.543 528.045 114.961V149.922ZM606.358 129.062C606.358 131.16 605.988 133.432 605.251 135.879C604.513 138.288 603.308 140.541 601.637 142.638C600.007 144.697 597.85 146.426 595.169 147.824C592.527 149.223 589.303 149.922 585.496 149.922H558.169C556.072 149.922 553.799 149.553 551.353 148.815C548.945 148.077 546.692 146.892 544.594 145.26C542.535 143.59 540.807 141.434 539.408 138.793C538.01 136.112 537.31 132.869 537.31 129.062C537.31 126.964 537.68 124.692 538.418 122.245C539.155 119.798 540.341 117.545 541.971 115.486C543.642 113.388 545.797 111.64 548.439 110.242C551.119 108.843 554.363 108.144 558.169 108.144H585.496V122.595H558.169C556.112 122.595 554.518 123.235 553.391 124.517C552.265 125.76 551.702 127.314 551.702 129.179C551.702 131.16 552.344 132.714 553.625 133.84C554.945 134.928 556.499 135.472 558.286 135.472H585.496C587.556 135.472 589.148 134.85 590.274 133.607C591.401 132.364 591.964 130.81 591.964 128.946V107.795C591.964 105.813 591.344 104.24 590.1 103.075C588.897 101.91 587.363 101.327 585.496 101.327H552.227V86.9348H585.496C587.594 86.9348 589.847 87.3038 592.255 88.0418C594.704 88.7799 596.957 89.984 599.017 91.6544C601.112 93.2859 602.862 95.4418 604.26 98.1222C605.659 100.763 606.358 103.988 606.358 107.795V129.062ZM675.055 102.084H640.792V86.9348H675.055V102.084ZM675.055 74.7568H640.909C638.852 74.7568 637.298 75.2811 636.248 76.3301C635.2 77.3401 634.675 78.8356 634.675 80.8167V149.922H619.525V80.8167C619.525 78.2141 619.857 75.8833 620.515 73.8246C621.177 71.7659 622.05 69.9594 623.138 68.4057C624.265 66.8131 625.546 65.4728 626.983 64.3852C628.42 63.2587 629.916 62.3458 631.47 61.6468C633.062 60.9475 634.656 60.4425 636.248 60.1317C637.84 59.7821 639.356 59.6074 640.792 59.6074H675.055V74.7568ZM752.551 107.795C752.551 109.892 752.181 112.164 751.444 114.612C750.704 117.02 749.501 119.273 747.83 121.371C746.198 123.43 744.043 125.158 741.363 126.557C738.721 127.955 735.496 128.654 731.69 128.654H704.363V114.262H731.69C733.749 114.262 735.341 113.641 736.468 112.398C737.594 111.116 738.157 109.542 738.157 107.678C738.157 105.697 737.518 104.143 736.236 103.016C734.993 101.89 733.477 101.327 731.69 101.327H704.363C702.303 101.327 700.711 101.968 699.585 103.25C698.458 104.493 697.895 106.047 697.895 107.911V129.062C697.895 131.082 698.518 132.655 699.759 133.782C701.043 134.908 702.616 135.472 704.48 135.472H731.69V149.922H704.363C702.265 149.922 699.993 149.553 697.546 148.815C695.138 148.077 692.885 146.892 690.787 145.26C688.728 143.59 687 141.434 685.601 138.793C684.203 136.112 683.503 132.869 683.503 129.062V107.795C683.503 105.697 683.873 103.444 684.611 101.036C685.348 98.5883 686.532 96.3353 688.165 94.2764C689.835 92.1788 691.99 90.4308 694.632 89.0324C697.313 87.6339 700.556 86.9348 704.363 86.9348H731.69C733.788 86.9348 736.041 87.3038 738.449 88.0418C740.897 88.7799 743.15 89.984 745.208 91.6544C747.305 93.2859 749.055 95.4418 750.453 98.1222C751.852 100.763 752.551 103.988 752.551 107.795ZM827.308 129.062C827.308 131.16 826.938 133.432 826.2 135.879C825.463 138.288 824.258 140.541 822.587 142.638C820.957 144.697 818.799 146.426 816.119 147.824C813.48 149.223 810.255 149.922 806.449 149.922H779.119C777.021 149.922 774.749 149.553 772.303 148.815C769.895 148.077 767.642 146.892 765.544 145.26C763.484 143.59 761.756 141.434 760.358 138.793C758.959 136.112 758.26 132.869 758.26 129.062C758.26 126.964 758.63 124.692 759.367 122.245C760.105 119.798 761.291 117.545 762.921 115.486C764.592 113.388 766.747 111.64 769.389 110.242C772.069 108.843 775.313 108.144 779.119 108.144H806.449V122.595H779.119C777.062 122.595 775.468 123.235 774.341 124.517C773.215 125.76 772.651 127.314 772.651 129.179C772.651 131.16 773.293 132.714 774.575 133.84C775.895 134.928 777.449 135.472 779.236 135.472H806.449C808.506 135.472 810.1 134.85 811.227 133.607C812.353 132.364 812.916 130.81 812.916 128.946V107.795C812.916 105.813 812.293 104.24 811.05 103.075C809.847 101.91 808.313 101.327 806.449 101.327H773.177V86.9348H806.449C808.544 86.9348 810.797 87.3038 813.208 88.0418C815.654 88.7799 817.907 89.984 819.966 91.6544C822.064 93.2859 823.811 95.4418 825.21 98.1222C826.608 100.763 827.308 103.988 827.308 107.795V129.062ZM910.048 149.922H894.897V114.961C894.897 112.98 894.549 111.213 893.85 109.659C893.188 108.066 892.274 106.707 891.11 105.58C889.945 104.454 888.566 103.599 886.974 103.016C885.42 102.395 883.73 102.084 881.904 102.084H855.391V149.922H840.243V94.4513C840.243 93.4024 840.437 92.4313 840.826 91.5379C841.215 90.6055 841.756 89.8093 842.456 89.1489C843.155 88.4496 843.971 87.906 844.904 87.5174C845.835 87.1289 846.828 86.9348 847.876 86.9348H882.021C883.924 86.9348 885.924 87.1484 888.021 87.5756C890.157 88.0031 892.255 88.7021 894.315 89.6733C896.413 90.6055 898.394 91.8098 900.258 93.2859C902.162 94.7231 903.833 96.4907 905.27 98.5883C906.745 100.647 907.912 103.036 908.766 105.755C909.62 108.474 910.048 111.543 910.048 114.961V149.922ZM982.997 91.5962C983.62 93.0334 983.776 94.49 983.463 95.9661C983.193 97.4422 982.532 98.7241 981.482 99.8119L946.465 134.772H982.881V149.922H928.227C926.673 149.922 925.255 149.495 923.974 148.64C922.73 147.747 921.797 146.62 921.177 145.26C920.594 143.823 920.439 142.367 920.711 140.89C921.021 139.375 921.74 138.055 922.866 136.928L957.709 102.084H921.293V86.9348H976.064C977.58 86.9348 978.957 87.3427 980.2 88.1585C981.482 88.9742 982.415 90.12 982.997 91.5962ZM1056.01 128.654C1056.01 131.257 1055.68 133.607 1055.02 135.705C1054.36 137.763 1053.48 139.589 1052.39 141.182C1051.31 142.736 1050.05 144.076 1048.61 145.202C1047.17 146.29 1045.65 147.183 1044.06 147.883C1042.51 148.582 1040.92 149.106 1039.28 149.456C1037.69 149.767 1036.18 149.922 1034.74 149.922H993.718V134.772H1034.62C1036.68 134.772 1038.24 134.248 1039.28 133.199C1040.33 132.15 1040.86 130.635 1040.86 128.654C1040.66 124.614 1038.62 122.595 1034.74 122.595H1011.26C1007.92 122.595 1005.08 122.012 1002.75 120.846C1000.42 119.681 998.515 118.224 997.041 116.476C995.604 114.728 994.554 112.844 993.895 110.824C993.272 108.805 992.962 106.921 992.962 105.173C992.962 101.793 993.563 98.9573 994.768 96.6654C995.971 94.3346 997.487 92.4508 999.313 91.0134C1001.14 89.5761 1003.12 88.5468 1005.26 87.9253C1007.39 87.2649 1009.39 86.9348 1011.26 86.9348H1048.49V102.084H1011.37C1010.6 102.084 1009.98 102.181 1009.51 102.376C1009.08 102.531 1008.75 102.764 1008.52 103.075C1008.32 103.347 1008.21 103.658 1008.17 104.007C1008.13 104.318 1008.11 104.629 1008.11 104.939C1008.15 105.561 1008.27 106.047 1008.46 106.396C1008.65 106.746 1008.89 106.998 1009.16 107.153C1009.47 107.309 1009.8 107.406 1010.15 107.445C1010.54 107.445 1010.91 107.445 1011.26 107.445H1034.74C1038.62 107.445 1041.93 108.144 1044.64 109.542C1047.37 110.941 1049.56 112.708 1051.23 114.845C1052.9 116.942 1054.1 119.234 1054.84 121.721C1055.62 124.206 1056.01 126.518 1056.01 128.654Z" fill="white"/>
<path d="M382.554 212.452C379.833 212.452 377.709 211.903 376.181 210.805C374.671 209.707 373.723 208.013 373.341 205.721C373.279 205.021 373.422 204.496 373.771 204.146C374.122 203.796 374.63 203.621 375.298 203.621C375.967 203.621 376.453 203.78 376.754 204.099C377.074 204.417 377.289 204.91 377.398 205.578C377.637 206.676 378.148 207.432 378.926 207.846C379.723 208.243 380.931 208.442 382.554 208.442H389.427C391.48 208.442 392.873 208.076 393.604 207.344C394.353 206.596 394.725 205.212 394.725 203.192C394.725 201.139 394.344 199.739 393.58 198.991C392.816 198.227 391.432 197.846 389.427 197.846H383.508C380.501 197.846 378.267 197.114 376.802 195.65C375.356 194.17 374.63 191.927 374.63 188.92C374.63 185.928 375.346 183.709 376.778 182.261C378.227 180.813 380.453 180.089 383.461 180.089H389.141C391.671 180.089 393.651 180.606 395.083 181.64C396.532 182.674 397.446 184.258 397.828 186.39C397.924 187.074 397.797 187.599 397.446 187.965C397.098 188.315 396.573 188.49 395.871 188.49C395.236 188.49 394.759 188.323 394.439 187.989C394.122 187.655 393.914 187.169 393.819 186.533C393.566 185.594 393.079 184.958 392.363 184.624C391.647 184.273 390.573 184.099 389.141 184.099H383.461C381.551 184.099 380.272 184.441 379.618 185.125C378.967 185.793 378.64 187.058 378.64 188.92C378.64 190.797 378.974 192.086 379.642 192.786C380.31 193.486 381.599 193.836 383.508 193.836H389.427C392.563 193.836 394.893 194.6 396.42 196.127C397.964 197.655 398.735 200.009 398.735 203.192C398.735 206.358 397.971 208.697 396.444 210.208C394.916 211.704 392.577 212.452 389.427 212.452H382.554ZM491.914 212.452C491.246 212.452 490.745 212.285 490.41 211.951C490.076 211.616 489.909 211.115 489.909 210.447V184.146H480.649C479.981 184.146 479.48 183.979 479.146 183.645C478.811 183.311 478.644 182.81 478.644 182.142C478.644 181.473 478.811 180.972 479.146 180.638C479.48 180.304 479.981 180.137 480.649 180.137H503.179C503.847 180.137 504.348 180.304 504.683 180.638C505.017 180.972 505.184 181.473 505.184 182.142C505.184 182.81 505.017 183.311 504.683 183.645C504.348 183.979 503.847 184.146 503.179 184.146H493.919V210.447C493.919 211.083 493.745 211.577 493.394 211.927C493.06 212.277 492.566 212.452 491.914 212.452ZM599.086 212.452C595.441 212.452 592.745 211.584 590.995 209.85C589.26 208.1 588.394 205.403 588.394 201.76V182.094C588.394 181.426 588.561 180.924 588.895 180.59C589.229 180.256 589.73 180.089 590.399 180.089C591.067 180.089 591.568 180.256 591.902 180.59C592.236 180.924 592.403 181.426 592.403 182.094V201.76C592.403 203.462 592.601 204.799 593 205.769C593.413 206.74 594.105 207.432 595.076 207.846C596.048 208.243 597.384 208.442 599.086 208.442H604.814C606.515 208.442 607.852 208.243 608.823 207.846C609.795 207.432 610.477 206.74 610.876 205.769C611.289 204.799 611.496 203.462 611.496 201.76V182.094C611.496 181.426 611.663 180.924 611.998 180.59C612.332 180.256 612.833 180.089 613.501 180.089C614.169 180.089 614.671 180.256 615.005 180.59C615.339 180.924 615.506 181.426 615.506 182.094V201.76C615.506 205.403 614.64 208.1 612.904 209.85C611.169 211.584 608.472 212.452 604.814 212.452H599.086ZM704.272 212.452C702.935 212.452 702.267 211.784 702.267 210.447V182.094C702.267 180.757 702.935 180.089 704.272 180.089H715.776C719.928 180.089 722.983 181.075 724.94 183.048C726.912 185.005 727.9 188.06 727.9 192.213V200.328C727.9 204.48 726.921 207.543 724.964 209.516C723.021 211.473 719.959 212.452 715.776 212.452H704.272ZM706.277 208.442H715.776C717.811 208.442 719.418 208.195 720.597 207.702C721.79 207.193 722.632 206.35 723.126 205.173C723.635 203.979 723.89 202.364 723.89 200.328V192.213C723.89 190.192 723.635 188.593 723.126 187.416C722.632 186.223 721.79 185.371 720.597 184.862C719.418 184.353 717.811 184.099 715.776 184.099H706.277V208.442ZM815.761 212.452C815.076 212.452 814.568 212.293 814.234 211.974C813.914 211.64 813.756 211.131 813.756 210.447V182.142C813.756 181.441 813.914 180.932 814.234 180.614C814.568 180.296 815.076 180.137 815.761 180.137C816.461 180.137 816.969 180.296 817.289 180.614C817.606 180.932 817.766 181.441 817.766 182.142V210.447C817.766 211.131 817.606 211.64 817.289 211.974C816.969 212.293 816.461 212.452 815.761 212.452ZM914.327 212.452C910.685 212.452 907.988 211.584 906.236 209.85C904.503 208.1 903.635 205.403 903.635 201.76V190.733C903.635 187.058 904.511 184.361 906.26 182.643C908.012 180.908 910.699 180.057 914.327 180.089H920.055C923.716 180.089 926.413 180.956 928.145 182.69C929.881 184.425 930.747 187.121 930.747 190.781V201.76C930.747 205.403 929.881 208.1 928.145 209.85C926.413 211.584 923.716 212.452 920.055 212.452H914.327ZM914.327 208.442H920.055C921.759 208.442 923.095 208.243 924.064 207.846C925.036 207.432 925.721 206.74 926.117 205.769C926.532 204.799 926.737 203.462 926.737 201.76V190.781C926.737 189.094 926.532 187.766 926.117 186.795C925.721 185.825 925.036 185.133 924.064 184.719C923.095 184.305 921.759 184.099 920.055 184.099H914.327C912.642 184.083 911.313 184.273 910.341 184.671C909.372 185.069 908.68 185.753 908.265 186.724C907.852 187.694 907.644 189.031 907.644 190.733V201.76C907.644 203.462 907.845 204.799 908.241 205.769C908.656 206.74 909.348 207.432 910.317 207.846C911.289 208.243 912.625 208.442 914.327 208.442Z" fill="white"/>
<path fill-rule="evenodd" clip-rule="evenodd" d="M107.557 0L162.407 95.0033L162.095 95.5442L162.564 95.2737L211.519 180.067L211.368 180.153H211.551V183.773H145.562L145.552 183.791L145.52 183.773H145.494V183.758L142.417 181.981L160.622 150.449L163.757 152.259L147.652 180.153H207.389L160.318 98.6227L98.6174 205.491H255.351L203.844 116.279L176.984 69.7554L136.711 0H107.557Z" fill="white"/>
<path fill-rule="evenodd" clip-rule="evenodd" d="M147.794 299.95L92.9437 204.946L93.2558 204.405L92.7873 204.675L43.8322 119.882L43.9828 119.795H43.7998V116.176H109.789L109.8 116.158L109.831 116.176H109.858V116.191L112.934 117.968L94.7291 149.5L91.5945 147.69L107.699 119.795H47.9616L95.0332 201.326L156.734 94.458H0L51.5067 183.67L78.3668 230.193L118.64 299.95H147.794Z" fill="white"/>
</svg>
