<svg width="915" height="300" viewBox="0 0 915 300" fill="none" xmlns="http://www.w3.org/2000/svg">
<g clip-path="url(#clip0_11_38)">
<path fill-rule="evenodd" clip-rule="evenodd" d="M136.699 1.0932L130.788 1.99058L130.339 13.0604C129.649 30.0488 135.148 46.2019 146.88 61.6479C152.147 68.5821 168.596 82.4311 171.564 82.4311C172.128 82.4311 173.75 77.615 175.169 71.7303C176.589 65.8456 178.657 59.2361 179.762 57.0443C182.821 50.9811 182.271 49.6114 174.715 44.4897C170.876 41.8875 164.409 36.2537 160.345 31.972C156.281 27.6901 154.618 25.6076 156.65 27.3433C161.753 31.7019 182.896 45.5317 184.457 45.5317C185.159 45.5317 186.442 43.9762 187.309 42.0751C188.177 40.174 192.656 34.552 197.264 29.5809L205.64 20.545L197.152 15.1224C184.358 6.94837 172.368 2.64739 158.237 1.16109C151.268 0.429007 144.901 -0.0890591 144.089 0.0127829C143.276 0.113149 139.951 0.598745 136.699 1.0932ZM262.315 2.30202C231.513 5.17722 204.029 22.415 189.836 47.7634C185.06 56.2946 178.818 72.6631 178.818 76.6586C178.818 83.0038 224.775 67.053 245.32 53.5773L253.448 48.2461L247.023 54.8407C234.946 67.2359 213.285 77.9294 191.753 82.1255C184.645 83.5114 178.825 85.0553 178.822 85.5572C178.81 87.8685 197.069 91.2869 209.424 91.2869C253.394 91.2869 288.177 57.5948 288.177 15.0043V4.33886L283.374 3.60972C275.302 2.38467 266.975 1.86661 262.315 2.30202ZM66.3783 99.4373C35.2137 106.996 11.6866 129.856 3.80389 160.238C2.4768 165.353 1.47778 175.256 1.47778 183.303C1.47778 224.22 28.6492 257.687 68.762 266.174C88.6433 270.378 108.084 267.909 126.56 258.829C132.363 255.977 137.475 253.643 137.919 253.643C138.363 253.643 140.239 256.332 142.088 259.615C145.326 265.37 145.694 265.572 152.158 265.151L158.867 264.714L159.26 223.756L159.653 182.798H136.835H114.019L113.536 211.708L113.054 240.621L108.907 244.179C100.297 251.571 80.7073 247.818 67.9064 236.325C41.8374 212.914 41.3512 157.25 66.9901 131.101C70.3788 127.645 76.6906 123.18 81.0162 121.178C87.6443 118.113 90.5453 117.634 99.4891 118.129C116.628 119.077 128.715 127.098 135.944 142.322C137.842 146.319 139.53 149.774 139.694 150.001C139.939 150.343 157.806 143.144 159.335 142.087C159.594 141.91 158.03 138.266 155.861 133.991C150.978 124.366 139.173 112.535 129.052 107.121C112.148 98.0808 85.4674 94.8086 66.3783 99.4373ZM466.995 99.3163C443.119 105.421 425.834 119.242 415.2 140.732C407.466 156.362 406.459 165.226 406.429 217.852L406.404 265.451H429.31H452.217V245.526V225.6H476.601H500.985V215.268V204.937H476.601H452.217L452.228 183.904C452.242 157.803 453.992 146.28 459.733 134.471C463.284 127.169 465.61 124.44 470.941 121.319C485.081 113.043 503.497 117.536 511.145 131.125C516.616 140.849 518.715 151.001 519.687 172.466C521.299 208.037 515.537 246.285 504.624 272.468C501.663 279.567 498.913 286.459 498.51 287.78C497.987 289.5 500.163 291.545 506.15 294.967L514.521 299.75L519.687 294.777C545.007 270.409 564.532 222.649 564.532 185.084C564.532 146.829 542.447 112.694 510.471 101.529C499.108 97.5599 478.052 96.4883 466.995 99.3163ZM819.327 99.3811C797.551 104.113 777.266 120.188 767.71 140.283C759.343 157.88 758.128 167.967 758.128 219.826V265.451H781.034H803.941V245.526V225.6H828.325H852.709V215.268V204.937H828.325H803.941L803.966 189.069C804.022 154.623 808.367 134.44 817.608 125.705C824.768 118.935 828.853 117.326 838.917 117.313C862.457 117.282 871.757 135.847 871.869 183.092C871.957 219.766 865.952 252.992 854.932 276.813C852.084 282.969 849.754 288.514 849.754 289.134C849.754 289.754 853.562 292.408 858.217 295.032L866.681 299.802L876.321 289.5C886.631 278.48 895.745 263.764 903.845 245.051C911.871 226.512 914.995 212.419 915.853 190.88C916.515 174.273 916.19 170.096 913.463 160.166C900.854 114.268 863.076 89.8744 819.327 99.3811ZM190.64 182.759V265.451H213.559H236.478L236.095 183.166L235.714 100.881L213.177 100.473L190.64 100.066V182.759ZM272.907 101.127C272.364 101.667 271.921 138.862 271.921 183.782V265.451H294.828H317.734V230.029V194.605H345.813H373.892V183.535V172.466H345.813H317.734V147.374V122.282H353.941H390.148V111.213V100.143H332.02C300.049 100.143 273.448 100.586 272.907 101.127ZM593.596 101.127C593.054 101.667 592.611 138.862 592.611 183.782V265.451H615.517H638.424V234.457V203.461H644.855H651.285L653.984 213.424C657.488 226.36 667.577 246.248 676.074 256.966L682.801 265.451H710.982C726.482 265.451 738.941 264.891 738.669 264.204C738.399 263.518 732.192 257.956 724.877 251.842C717.561 245.727 708.158 236.795 703.982 231.992C695.611 222.367 682.111 203.608 682.96 202.781C683.255 202.493 687.488 200.86 692.364 199.154C709.234 193.255 723.059 180.783 729.547 165.613C731.064 162.062 731.998 155.75 732.027 148.838C732.133 122.83 715.176 105.75 685.238 101.704C672.687 100.008 595.204 99.5199 593.596 101.127ZM666.91 119.627C680.523 123.699 686.743 135.355 685.209 153.91C684.188 166.278 679.794 175.521 671.904 181.902C666.607 186.186 665.322 186.522 652.328 186.999L638.424 187.51V152.682V117.854H649.705C655.911 117.854 663.652 118.651 666.91 119.627Z" fill="white"/>
</g>
<defs>
<clipPath id="clip0_11_38">
<rect width="914.778" height="300" fill="white"/>
</clipPath>
</defs>
</svg>
