<svg width="416" height="300" viewBox="0 0 416 300" fill="none" xmlns="http://www.w3.org/2000/svg">
<path fill-rule="evenodd" clip-rule="evenodd" d="M182.082 16.424C182.075 28.8318 181.88 33.7622 181.284 36.5859C178.093 51.7203 163.109 62.1417 140.173 65.1801C83.4453 72.6939 37.7222 97.3504 16.2435 132.011C7.49137 146.134 2.06281 162.828 0.563361 180.23C0.227481 184.127 0.00907696 208.74 0.00533902 243.059L0 299.481L4.54427 299.859C13.29 300.588 26.2067 298.423 34.7367 294.798C45.8587 290.071 56.208 281.032 61.9137 271.06C62.854 269.416 63.8414 268.071 64.1073 268.071C64.3738 268.071 65.8118 268.995 67.3038 270.124C79.5819 279.417 98.3789 286.186 118.012 288.384C125.296 289.199 142.244 289.062 150.113 288.124C165.899 286.244 180.458 282.619 188.766 278.502C214.013 265.989 233.641 245.05 242.59 221.08C247.529 207.85 249.282 196.061 250.451 168.215C251.404 145.5 252.851 136.421 256.91 127.681C258.057 125.211 259.866 122.087 260.93 120.739C268.648 110.953 281.161 105.587 297.967 104.857C304.211 104.585 305.817 104.697 309.961 105.691C328.076 110.037 339.421 123.966 343.704 147.122C344.6 151.969 344.667 154.683 344.425 176.492C343.957 218.583 344.154 237.65 345.134 245.133C348.167 268.297 356.211 281.235 370.895 286.565C377.244 288.87 382.867 289.427 399.826 289.429L415.446 289.431L415.445 222.015C415.445 180.413 415.236 152.349 414.9 148.724C410.514 101.394 384.856 66.0473 343.09 49.7953C332.995 45.8678 326.692 44.4073 315.055 43.3003C290.947 41.0068 271.35 42.9719 256.617 49.1604C254.581 50.0163 252.848 50.6502 252.767 50.5696C252.686 50.4889 252.551 39.14 252.466 25.3486L252.311 0.274476L217.201 0.137238L182.091 0L182.082 16.424ZM0.543069 68.7589C0.551613 120.334 0.582586 121.974 1.51547 120.423C2.04519 119.542 3.40687 117.259 4.54053 115.35C11.6031 103.463 23.0279 91.8882 36.3114 83.1639C43.4466 78.477 56.1882 72.2368 64.001 69.6021L70.0634 67.5574L69.8002 58.7466C69.6031 52.1576 69.2523 48.8581 68.4102 45.6638C64.9644 32.5959 56.5342 23.7071 42.8491 18.7127C35.3097 15.961 31.2844 15.4932 15.16 15.4932H0.533992L0.543069 68.7589ZM184.751 122.692C184.746 122.913 184.226 126.697 183.596 131.102C182.583 138.191 182.44 141.783 182.352 162.341C182.247 186.861 182.1 188.635 179.608 195.562C174.42 209.977 162.885 220.541 147.536 224.932C141.48 226.664 129.684 226.671 123.732 224.947C105.409 219.638 92.576 205.589 89.3897 187.353C85.6507 165.95 98.1546 143.9 118.566 135.9C122.797 134.242 129.701 132.857 142.576 131.082C154.409 129.45 171.251 126.129 178.62 123.974C184.843 122.154 184.764 122.171 184.751 122.692Z" fill="white"/>
</svg>
