<svg width="715" height="300" viewBox="0 0 715 300" fill="none" xmlns="http://www.w3.org/2000/svg">
<g clip-path="url(#clip0_11_37)">
<path d="M656.318 56.3782C667.233 56.3782 677.17 58.9359 686.128 64.0484C695.086 69.1558 702.116 76.1884 707.226 85.1457C712.331 94.1054 714.886 104.113 714.886 115.169V166.183C714.886 168.006 714.325 169.513 713.202 170.704C712.09 171.89 710.55 172.481 708.589 172.481C706.771 172.481 705.264 171.89 704.077 170.704C702.881 169.513 702.287 168.006 702.287 166.183V149.809C697.669 157.228 691.335 163.072 683.286 167.343C675.241 171.607 666.25 173.737 656.318 173.737C645.26 173.737 635.249 171.185 626.295 166.077C617.332 160.972 610.298 153.939 605.188 144.979C600.079 136.022 597.524 126.084 597.524 115.169C597.524 104.113 600.079 94.1054 605.188 85.1457C610.298 76.1884 617.332 69.1558 626.295 64.0484C635.249 58.9359 645.26 56.3782 656.318 56.3782ZM656.318 161.981C664.989 161.981 672.825 159.952 679.818 155.895C686.819 151.838 692.314 146.242 696.301 139.106C700.294 131.965 702.287 123.986 702.287 115.169C702.287 106.347 700.294 98.3675 696.301 91.2315C692.314 84.0974 686.819 78.466 679.818 74.336C672.825 70.2018 664.989 68.1343 656.318 68.1343C647.634 68.1343 639.793 70.2018 632.796 74.336C625.799 78.466 620.272 84.0974 616.21 91.2315C612.153 98.3675 610.122 106.347 610.122 115.169C610.122 123.986 612.153 131.965 616.21 139.106C620.272 146.242 625.799 151.838 632.796 155.895C639.793 159.952 647.634 161.981 656.318 161.981Z" fill="white"/>
<path d="M402.886 56.1658C413.099 56.1658 422.23 58.2668 430.282 62.464C438.331 66.6635 444.629 72.7882 449.177 80.8372C453.722 88.889 455.996 98.5127 455.996 109.711V166.183C455.996 168.006 455.4 169.513 454.209 170.704C453.024 171.89 451.519 172.481 449.698 172.481C447.882 172.481 446.378 171.89 445.187 170.704C443.994 169.513 443.4 168.006 443.4 166.183V109.711C443.4 96.4141 439.654 86.2637 432.166 79.2626C424.681 72.2643 414.922 68.7621 402.886 68.7621C395.467 68.7621 388.71 70.1991 382.619 73.0706C376.533 75.9445 371.738 79.934 368.236 85.0396C364.739 90.147 362.99 95.7788 362.99 101.935V166.183C362.99 168.006 362.43 169.513 361.309 170.704C360.189 171.89 358.648 172.481 356.692 172.481C354.876 172.481 353.371 171.89 352.181 170.704C350.988 169.513 350.394 168.006 350.394 166.183V63.9422C350.394 61.9785 350.988 60.4405 352.181 59.3244C353.371 58.2042 354.876 57.6436 356.692 57.6436C358.648 57.6436 360.189 58.2042 361.309 59.3244C362.43 60.4405 362.99 61.9785 362.99 63.9422V74.8576C367.748 68.9796 373.558 64.3938 380.417 61.1022C387.275 57.8128 394.764 56.1658 402.886 56.1658Z" fill="white"/>
<path d="M579.881 8.51312C581.842 8.51312 583.382 9.07339 584.499 10.194C585.617 11.3097 586.178 12.848 586.178 14.8114V116.212C586.043 126.993 583.382 136.793 578.198 145.608C573.023 154.424 565.989 161.319 557.101 166.289C548.216 171.255 538.382 173.737 527.611 173.737C516.552 173.737 506.546 171.185 497.587 166.077C488.624 160.972 481.59 153.939 476.481 144.979C471.371 136.022 468.821 126.014 468.821 114.956C468.821 104.041 471.371 94.1054 476.481 85.1457C481.59 76.1884 488.624 69.1558 497.587 64.0484C506.546 58.9358 516.552 56.3782 527.611 56.3782C537.543 56.3782 546.538 58.513 554.578 62.783C562.628 67.0525 568.966 72.8967 573.58 80.3156V14.8114C573.58 12.848 574.173 11.3097 575.369 10.194C576.561 9.07339 578.063 8.51312 579.881 8.51312ZM527.611 161.981C536.286 161.981 544.118 159.919 551.114 155.789C558.111 151.662 563.606 146.03 567.594 138.894C571.586 131.752 573.58 123.773 573.58 114.956C573.58 106.142 571.586 98.1649 567.594 91.0284C563.606 83.8873 558.111 78.287 551.114 74.2298C544.118 70.168 536.286 68.1343 527.611 68.1343C518.926 68.1343 511.085 70.168 504.088 74.2298C497.096 78.287 491.564 83.8873 487.502 91.0284C483.445 98.1649 481.414 106.142 481.414 114.956C481.414 123.773 483.445 131.752 487.502 138.894C491.564 146.03 497.096 151.662 504.088 155.789C511.085 159.919 518.926 161.981 527.611 161.981Z" fill="white"/>
<path d="M203.684 204.448V194.216C208.777 194.216 212.844 195.102 212.844 199.355C212.844 203.888 207.983 204.357 203.684 204.448ZM194.898 187.205V225.758H203.684V211.459C208.917 211.459 222.096 210.944 222.096 199.075C222.096 193.187 218.266 187.44 208.966 187.205H194.898Z" fill="white"/>
<path d="M257.802 187.205V225.758H266.588V211.459C267.382 211.459 268.317 211.459 269.391 211.411L278.831 225.758H288.506L277.897 209.636C281.775 208.047 284.999 204.963 284.999 199.075C284.999 193.187 281.169 187.44 271.869 187.205H257.802ZM266.588 204.448V194.216C271.681 194.216 275.748 195.102 275.748 199.355C275.748 203.888 270.886 204.357 266.588 204.448Z" fill="white"/>
<path d="M330.005 187.205H321.219V225.758H330.005V187.205Z" fill="white"/>
<path d="M366.692 225.758H375.478V205.946L399.685 225.758V187.205H390.9L390.805 207.066L366.692 187.205V225.758Z" fill="white"/>
<path d="M435.25 194.917H444.411V225.758H453.194V194.917H462.354V187.205H435.25V194.917Z" fill="white"/>
<path d="M520.164 187.205H512.031L496.521 225.758H505.957L508.762 218.047H523.433L526.331 225.758H535.771L520.164 187.205ZM520.442 210.336H511.753L516.051 199.121L520.442 210.336Z" fill="white"/>
<path d="M579.937 203.702V194.168H581.059C584.564 194.168 587.787 194.402 587.787 198.935C587.787 203.468 584.564 203.702 581.059 203.702H579.937ZM579.937 209.59H581.059C582.974 209.59 589.048 209.824 589.048 214.357C589.048 218.89 584.564 219.122 581.059 219.122H579.937V209.59ZM594.005 206.177C596.012 204.308 597.181 201.645 597.181 198.375C597.181 191.224 592.739 187.391 585.218 187.391H570.728V225.758H585.218C592.739 225.758 598.442 222.066 598.442 214.917C598.442 211.039 596.759 208.095 594.005 206.177Z" fill="white"/>
<path d="M643.122 187.205H634.335V225.758H656.388V218.047H643.122V187.205Z" fill="white"/>
<path d="M714.482 187.205H692.425V225.758H714.482V218.047H701.207V210.29H713.921V202.579H701.207V194.917H714.482V187.205Z" fill="white"/>
<path d="M276.627 56.3782C287.543 56.3782 297.478 58.9359 306.437 64.0484C315.395 69.1558 322.427 76.1884 327.535 85.1457C332.64 94.1054 335.195 104.113 335.195 115.169V166.183C335.195 168.006 334.635 169.513 333.514 170.704C332.399 171.89 330.86 172.481 328.897 172.481C327.081 172.481 325.577 171.89 324.386 170.704C323.193 169.513 322.599 168.006 322.599 166.183V149.809C317.981 157.228 311.647 163.072 303.597 167.343C295.554 171.607 286.562 173.737 276.627 173.737C265.569 173.737 255.561 171.185 246.604 166.077C237.644 160.972 230.609 153.939 225.497 144.979C220.389 136.022 217.836 126.084 217.836 115.169C217.836 104.113 220.389 94.1054 225.497 85.1457C230.609 76.1884 237.644 69.1558 246.604 64.0484C255.561 58.9359 265.569 56.3782 276.627 56.3782ZM276.627 161.981C285.302 161.981 293.136 159.952 300.13 155.895C307.128 151.838 312.623 146.242 316.61 139.106C320.602 131.965 322.599 123.986 322.599 115.169C322.599 106.347 320.602 98.3675 316.61 91.2315C312.623 84.0974 307.128 78.466 300.13 74.336C293.136 70.2018 285.302 68.1343 276.627 68.1343C267.945 68.1343 260.104 70.2018 253.105 74.336C246.111 78.466 240.581 84.0974 236.519 91.2315C232.462 98.3675 230.433 106.347 230.433 115.169C230.433 123.986 232.462 131.965 236.519 139.106C240.581 146.242 246.111 151.838 253.105 155.895C260.104 159.952 267.945 161.981 276.627 161.981Z" fill="white"/>
<path d="M227.374 104.565H235.575V132.176H243.438V104.565H251.637V97.6628H227.374V104.565Z" fill="white"/>
<path d="M288.696 97.6628H280.832V111.008H271.713V97.6628H263.848V132.176H271.713V118.874H280.832V132.176H288.696V97.6628Z" fill="white"/>
<path d="M321.448 97.6628H301.704V132.176H321.448V125.273H309.567V118.328H320.946V111.426H309.567V104.565H321.448V97.6628Z" fill="white"/>
<path fill-rule="evenodd" clip-rule="evenodd" d="M0.613614 34.4426C0.613614 15.4197 16.0334 0 35.0562 0C48.708 0 60.5059 7.94341 66.0784 19.4612C77.1491 15.5746 88.9586 13.631 101.507 13.631C114.447 13.631 126.558 15.6517 137.839 19.6917C143.365 8.0495 155.228 0 168.972 0C187.993 0 203.415 15.4197 203.415 34.4426C203.415 45.8335 197.884 55.934 189.361 62.2043C189.609 62.6258 189.855 63.0496 190.098 63.4767C198.952 78.9978 203.381 96.3399 203.381 115.505C203.381 134.426 198.952 151.65 190.098 167.176C181.243 182.697 169.052 194.886 153.526 203.739C138.005 212.588 120.665 217.012 101.507 217.012C84.2856 217.012 68.7018 213.312 54.7525 205.913C40.8085 198.513 29.8348 188.387 21.8315 175.532V289.047C21.8315 292.447 20.8583 295.115 18.9142 297.055C16.975 298.991 14.3088 299.962 10.9158 299.962C7.75938 299.962 5.15119 298.991 3.09119 297.055C1.02879 295.115 0 292.447 0 289.047V113.322C0.236669 94.647 4.84447 77.6671 13.8234 62.3847C13.934 62.1964 14.0451 62.0086 14.1566 61.8218C5.924 55.5278 0.613614 45.6047 0.613614 34.4426ZM142.253 186.09C130.124 193.123 116.543 196.639 101.507 196.639C86.4686 196.639 72.8847 193.123 60.7516 186.09C48.6236 179.053 39.1059 169.35 32.1967 156.985C25.285 144.615 21.8315 130.787 21.8315 115.505C21.8315 100.223 25.285 86.3972 32.1967 74.0253C39.1059 61.6558 48.6236 51.8917 60.7516 44.7361C72.8847 37.5829 86.4686 34.0039 101.507 34.0039C116.543 34.0039 130.124 37.5829 142.253 44.7361C154.385 51.8917 163.968 61.6558 171.001 74.0253C178.033 86.3972 181.55 100.223 181.55 115.505C181.55 130.787 178.033 144.615 171.001 156.985C163.968 169.35 154.385 179.053 142.253 186.09Z" fill="white"/>
<path fill-rule="evenodd" clip-rule="evenodd" d="M94.7549 124.87C91.1614 124.87 88.2485 127.782 88.2485 131.375C88.2485 133.002 88.8453 134.49 89.832 135.63L95.9822 145.124C97.0408 147.284 99.26 148.771 101.826 148.771C103.975 148.771 105.881 147.729 107.066 146.123L107.071 146.126L107.151 146.003C107.24 145.877 107.325 145.746 107.405 145.613L114.589 134.58L114.57 134.568C115.102 133.625 115.405 132.536 115.405 131.375C115.405 127.782 112.493 124.87 108.899 124.87C108.782 124.87 108.665 124.873 108.549 124.879V124.874H95.008C94.9241 124.871 94.8397 124.87 94.7549 124.87Z" fill="white"/>
<path fill-rule="evenodd" clip-rule="evenodd" d="M55.4229 79.385C59.8112 69.7711 71.1616 65.5349 80.7755 69.9232C90.3899 74.311 94.6256 85.6614 90.2378 95.2757C90.2072 95.3425 90.1766 95.4088 90.145 95.4751L81.4469 114.531C81.4256 114.579 81.4038 114.627 81.382 114.675C76.9937 124.289 65.6433 128.525 56.0294 124.137C46.4151 119.749 42.1792 108.396 46.5671 98.7844C46.6015 98.7097 46.6362 98.6351 46.671 98.5609L55.3427 79.5635C55.3692 79.5037 55.396 79.4444 55.4229 79.385ZM64.3923 83.2998C66.4984 78.6844 71.9466 76.6512 76.5616 78.7572C81.1766 80.8628 83.2098 86.311 81.1042 90.926C78.9959 95.5414 73.5477 97.5747 68.9327 95.4686C64.32 93.3603 62.2863 87.9121 64.3923 83.2998Z" fill="white"/>
<path fill-rule="evenodd" clip-rule="evenodd" d="M114.065 95.3119C109.583 85.7416 113.707 74.3499 123.276 69.8675C132.846 65.3856 144.238 69.5077 148.723 79.0785C148.771 79.1815 148.818 79.2849 148.864 79.3883L157.762 98.3791H157.761L157.767 98.3912C162.251 107.959 158.126 119.351 148.556 123.836C138.988 128.317 127.594 124.193 123.111 114.625C123.075 114.546 123.038 114.467 123.003 114.389L114.195 95.5832C114.151 95.4932 114.108 95.4028 114.065 95.3119ZM122.858 91.0108C120.706 86.4176 122.687 80.9499 127.28 78.7985C131.873 76.6465 137.341 78.6246 139.493 83.2178C141.644 87.811 139.666 93.281 135.073 95.4329C130.48 97.5844 125.01 95.604 122.858 91.0108Z" fill="white"/>
</g>
<defs>
<clipPath id="clip0_11_37">
<rect width="714.992" height="300" fill="white"/>
</clipPath>
</defs>
</svg>
